PathFileType	4	(X/Y/Z)	D:\TRACE\spotREDO_2-26-24\spot_justArm_Motion_3_2-v60.trc
DataRate	CameraRate	NumFrames	NumMarkers	Units	OrigDataRate	OrigDataStartFrame	OrigNumFrames
100.00	100.00	      21	9	mm	100.00	3501	      7000
Frame#	Time	front left toe			Front right toe			aft left toe			aft right toe			Arm			FL body			FR body			AL Body			AR Body			
		X1	Y1	Z1	X2	Y2	Z2	X3	Y3	Z3	X4	Y4	Z4	X5	Y5	Z5	X6	Y6	Z6	X7	Y7	Z7	X8	Y8	Z8	X9	Y9	Z9	

3501	35.000	-153.23103	18.86978	-269.50262	333.81189	19.88873	-235.41328	-187.58322	27.45964	339.84607	298.06601	29.88877	381.46213	-4.70463	660.25378	-821.14600	28.87686	531.73694	-318.85483	184.04474	533.96729	-313.51660	-8.93800	580.50446	562.89661	138.88466	579.27930	569.99811	
3502	35.010	-153.07626	19.27614	-269.51532	334.12918	20.19915	-235.06679	-187.76399	26.84972	339.88815	297.68524	29.43790	381.83783	-1.93716	658.63135	-819.92859	29.59060	531.62494	-319.28537	185.30544	533.67041	-313.17871	-9.86479	580.72089	562.75177	137.87799	579.60858	570.13098	
3503	35.020	-152.73634	19.68204	-269.79819	334.38101	20.25425	-234.64822	-187.89732	26.29782	339.87231	297.50143	29.28286	382.03821	-0.48813	658.14484	-819.78229	31.46587	530.97974	-318.92361	186.55554	533.47479	-312.87070	-11.02642	580.86560	562.49347	136.74600	579.76062	570.27728	
3504	35.030	-152.41760	20.48537	-269.62341	334.63654	20.30060	-234.35803	-188.12163	25.80664	339.89273	297.44125	28.84412	382.34760	0.58286	657.49054	-819.19965	32.92803	530.83722	-319.05371	187.86476	533.44904	-312.73694	-12.15639	580.90118	562.17255	135.53802	579.78607	570.49579	
3505	35.040	-152.27548	20.98508	-269.67392	334.82693	20.67147	-233.77087	-188.08029	25.30096	340.00458	297.53592	28.53584	382.51511	0.86979	656.96039	-818.28052	34.26775	530.63696	-319.21536	189.76563	533.06311	-312.16028	-13.36362	580.84198	561.94751	134.46461	579.67560	570.72485	
3506	35.050	-152.13719	21.31623	-269.44794	334.89081	20.74207	-233.39731	-188.04997	24.72341	340.06534	297.65265	28.13704	382.77859	0.26371	657.06989	-817.62207	36.12297	530.59900	-319.13678	190.90685	532.95654	-311.78705	-14.12608	580.75385	561.77301	133.64732	579.42401	570.94391	
3507	35.060	-152.02263	21.69352	-269.57455	334.94559	20.95835	-233.13202	-188.20721	24.33323	339.98398	297.30908	27.50021	382.93124	-1.06506	657.43701	-817.10388	37.27145	530.71857	-319.21179	192.56387	533.01465	-311.37598	-14.60320	580.52893	561.73712	132.96094	579.24908	571.14606	
3508	35.070	-151.92714	22.40232	-269.56335	335.03055	21.34753	-232.79604	-188.23479	24.04808	339.98514	297.43552	27.20672	383.35098	-0.90960	658.18225	-814.80127	38.46570	530.58569	-319.15659	193.54727	533.13525	-311.22748	-14.83101	580.18341	561.72217	132.81636	579.08179	571.26770	
3509	35.080	-151.99933	23.06770	-269.51282	335.20386	21.78784	-232.46407	-188.08971	23.60015	340.15295	297.57748	26.60908	383.58615	-5.24598	658.51398	-816.32745	39.26963	530.72668	-319.25003	194.55887	533.34753	-310.89932	-14.62633	579.69855	561.81665	132.65036	578.66266	571.45837	
3510	35.090	-151.92609	23.46513	-269.22601	335.20502	21.97178	-232.25899	-188.08975	23.24265	340.25549	297.93106	26.33654	383.86011	-7.51525	659.33295	-815.77551	40.23049	530.99487	-319.13266	195.28966	533.50732	-310.41910	-14.41478	579.21954	561.86853	133.12198	578.14569	571.75305	
3511	35.100	-152.04733	23.88477	-268.96722	335.06482	22.19823	-232.23964	-187.85550	22.98977	340.34744	298.16382	25.55853	383.99350	-9.93290	660.16791	-815.40277	40.63530	531.33453	-318.81653	195.63257	534.18066	-310.70859	-13.90194	578.65051	562.16498	133.71779	577.74817	571.86243	
3512	35.110	-152.32164	24.36125	-268.53598	335.09952	22.68797	-232.15544	-187.43703	22.56920	340.72525	298.28055	24.88796	384.11853	-12.06419	661.02582	-814.80518	40.77991	531.53992	-318.66275	195.66010	534.51813	-310.64069	-12.85602	578.12201	562.50751	134.89310	577.22772	572.12769	
3513	35.120	-152.42445	24.41704	-268.56888	334.95755	23.15486	-232.06470	-187.17986	22.42793	340.98312	298.69193	24.51102	384.21017	-14.10663	661.97083	-814.75067	40.56542	531.80182	-318.42859	195.50087	534.89716	-310.63950	-11.58525	577.40173	562.95215	136.05809	576.69611	572.29315	
3514	35.130	-152.67114	24.78252	-268.21368	335.01840	23.59093	-232.09119	-186.81972	22.16459	341.22794	298.88190	23.97335	384.47455	-15.68069	662.85278	-814.14642	40.10126	532.08795	-318.00565	195.14870	535.41162	-310.61722	-10.11853	576.85522	563.30035	137.14830	576.23486	572.37628	
3515	35.140	-152.71573	24.96258	-267.89374	334.96292	24.07953	-232.02057	-186.76570	21.82893	341.56879	299.04852	23.41313	384.34213	-14.91544	663.73804	-812.28876	39.21694	532.57166	-317.46384	194.45818	536.05176	-310.72943	-8.94494	576.20184	563.76160	138.84572	575.63409	572.48724	
3516	35.150	-152.81108	25.30062	-267.32901	334.86795	24.31021	-232.09052	-186.74228	21.57372	341.80820	299.01004	22.67101	384.51758	-17.09734	664.30603	-813.70026	38.78353	532.93304	-317.12234	193.88351	536.47571	-310.36990	-7.42484	575.51501	564.42273	140.18533	575.13086	572.71649	
3517	35.160	-152.88553	25.47663	-267.06992	334.85754	24.82627	-232.00620	-186.43231	21.26838	342.12411	299.18393	22.08996	384.66006	-17.23462	664.90607	-813.72443	37.99068	533.45178	-316.83963	193.08992	537.34888	-310.82184	-6.25408	574.88733	564.95593	141.75299	574.56909	572.93390	
3518	35.170	-153.04610	25.77902	-266.76904	334.72968	25.14860	-231.90060	-186.24802	21.03670	342.39682	299.17932	21.71214	384.57632	-16.69770	665.24048	-813.57257	37.43176	534.11011	-316.38980	192.32791	538.02100	-310.47049	-5.21216	574.22833	565.40686	142.44092	574.23126	572.88300	
3519	35.180	-151.67731	25.16339	-266.11240	334.58133	25.59815	-231.60524	-186.10329	20.59111	342.83881	299.03537	20.95973	384.69199	-16.06002	665.59802	-813.50037	37.01276	534.67255	-316.01675	191.90778	538.68384	-310.33572	-4.22196	573.76044	565.99890	143.55005	573.69098	573.37164	
3520	35.190	-151.75838	25.57097	-265.86044	334.43866	25.89635	-231.49265	-186.08060	20.27976	342.98822	299.12405	20.65491	384.72192	-14.83017	666.10980	-814.01489	36.40108	535.26807	-315.54031	191.52351	539.21594	-310.28299	-1.11034	571.24890	568.85199	144.38727	573.14984	573.53876	
3521	35.200	-151.84431	25.91429	-265.70352	334.49719	26.24501	-231.29123	-186.21074	20.06883	343.01199	299.05008	20.23910	384.84305	-13.18344	666.10925	-813.95782	35.84050	535.87006	-315.30139	190.86183	539.82867	-310.19415	-2.93004	572.88104	566.72467	144.96980	572.85791	574.21735	
